<svg preserveAspectRatio="none" width="100%" height="100%" overflow="visible" style="display: block;" viewBox="0 0 24 24" fill="none" xmlns="http://www.w3.org/2000/svg">
<g id="roentgen:roundabout">
<path id="Vector" d="M6.75 6C5.7495 6 4.8375 6.477 4.158 7.1565C3.477 7.8375 3 8.751 3 9.75V13.5H2.25C2.05109 13.5 1.86032 13.579 1.71967 13.7197C1.57902 13.8603 1.5 14.0511 1.5 14.25C1.5 14.4489 1.57902 14.6397 1.71967 14.7803C1.86032 14.921 2.05109 15 2.25 15H9V17.25C9 17.6655 9.3345 18 9.75 18H12.75C13.1655 18 13.5 17.6655 13.5 17.25V15H20.25C20.4489 15 20.6397 14.921 20.7803 14.7803C20.921 14.6397 21 14.4489 21 14.25C21 14.0511 20.921 13.8603 20.7803 13.7197C20.6397 13.579 20.4489 13.5 20.25 13.5H19.5V9.75C19.5 8.7495 19.023 7.8375 18.3435 7.1565C17.6625 6.477 16.7505 6 15.75 6H6.75ZM6.75 7.5H10.5V13.5H4.5V9.75C4.5 9.2505 4.773 8.6625 5.217 8.2185C5.664 7.773 6.2505 7.5 6.75 7.5ZM12 7.5H15.75C16.2495 7.5 16.8375 7.773 17.2815 8.2185C17.727 8.6625 18 9.2505 18 9.75V13.5H12V7.5Z" fill="var(--fill-0, white)"/>
</g>
</svg>
