<svg width="1200" height="900" viewBox="0 0 1200 900" fill="none" xmlns="http://www.w3.org/2000/svg">
  <rect width="1200" height="900" rx="48" fill="#F8FAFC"/>
  <rect width="1200" height="900" rx="48" fill="url(#grid)" opacity="0.55"/>
  <circle cx="192" cy="156" r="152" fill="#8B5CF6" opacity="0.14"/>
  <circle cx="1004" cy="770" r="214" fill="#14B8A6" opacity="0.12"/>
  <rect x="84" y="72" width="1032" height="756" rx="40" fill="#0F172A"/>
  <rect x="84" y="72" width="1032" height="756" rx="40" fill="url(#panelGlow)" opacity="0.78"/>
  <rect x="132" y="120" width="936" height="88" rx="24" fill="white" fill-opacity="0.08" stroke="white" stroke-opacity="0.14"/>
  <circle cx="168" cy="164" r="10" fill="#2DD4BF"/>
  <circle cx="202" cy="164" r="10" fill="#94A3B8"/>
  <circle cx="236" cy="164" r="10" fill="#94A3B8"/>
  <text x="838" y="172" fill="#E2E8F0" font-family="Inter, Arial, sans-serif" font-size="24" font-weight="700" text-anchor="middle">STAYBOOKED</text>
  <rect x="132" y="248" width="380" height="492" rx="32" fill="white" fill-opacity="0.09" stroke="white" stroke-opacity="0.12"/>
  <text x="172" y="318" fill="#F8FAFC" font-family="Inter, Arial, sans-serif" font-size="42" font-weight="800">Booking</text>
  <text x="172" y="368" fill="#C4B5FD" font-family="Inter, Arial, sans-serif" font-size="42" font-weight="800">workflow</text>
  <text x="172" y="426" fill="#CBD5E1" font-family="Inter, Arial, sans-serif" font-size="22" font-weight="500">Availability, intake,</text>
  <text x="172" y="458" fill="#CBD5E1" font-family="Inter, Arial, sans-serif" font-size="22" font-weight="500">confirmation, and follow-up</text>
  <text x="172" y="490" fill="#CBD5E1" font-family="Inter, Arial, sans-serif" font-size="22" font-weight="500">states for service teams.</text>
  <rect x="172" y="564" width="116" height="42" rx="21" fill="#8B5CF6"/>
  <text x="230" y="592" fill="white" font-family="Inter, Arial, sans-serif" font-size="16" font-weight="800" text-anchor="middle">Review</text>
  <rect x="304" y="564" width="124" height="42" rx="21" fill="white" fill-opacity="0.12" stroke="white" stroke-opacity="0.16"/>
  <text x="366" y="592" fill="#E2E8F0" font-family="Inter, Arial, sans-serif" font-size="16" font-weight="800" text-anchor="middle">Prototype</text>
  <rect x="560" y="248" width="508" height="492" rx="32" fill="#F8FAFC"/>
  <rect x="604" y="296" width="420" height="78" rx="22" fill="#EEF2FF"/>
  <text x="638" y="345" fill="#312E81" font-family="Inter, Arial, sans-serif" font-size="22" font-weight="800">Today&apos;s availability</text>
  <rect x="604" y="408" width="118" height="96" rx="22" fill="#FFFFFF" stroke="#CBD5E1"/>
  <text x="663" y="444" fill="#64748B" font-family="Inter, Arial, sans-serif" font-size="16" font-weight="700" text-anchor="middle">10:00</text>
  <text x="663" y="476" fill="#0F172A" font-family="Inter, Arial, sans-serif" font-size="18" font-weight="800" text-anchor="middle">Open</text>
  <rect x="756" y="408" width="118" height="96" rx="22" fill="#7C3AED"/>
  <text x="815" y="444" fill="#DDD6FE" font-family="Inter, Arial, sans-serif" font-size="16" font-weight="700" text-anchor="middle">12:30</text>
  <text x="815" y="476" fill="#FFFFFF" font-family="Inter, Arial, sans-serif" font-size="18" font-weight="800" text-anchor="middle">Held</text>
  <rect x="906" y="408" width="118" height="96" rx="22" fill="#FFFFFF" stroke="#CBD5E1"/>
  <text x="965" y="444" fill="#64748B" font-family="Inter, Arial, sans-serif" font-size="16" font-weight="700" text-anchor="middle">3:00</text>
  <text x="965" y="476" fill="#0F172A" font-family="Inter, Arial, sans-serif" font-size="18" font-weight="800" text-anchor="middle">Open</text>
  <rect x="604" y="546" width="420" height="56" rx="18" fill="#FFFFFF" stroke="#E2E8F0"/>
  <circle cx="636" cy="574" r="9" fill="#2DD4BF"/>
  <text x="662" y="582" fill="#0F172A" font-family="Inter, Arial, sans-serif" font-size="18" font-weight="800">Intake complete</text>
  <rect x="604" y="622" width="420" height="56" rx="18" fill="#FFFFFF" stroke="#E2E8F0"/>
  <circle cx="636" cy="650" r="9" fill="#8B5CF6"/>
  <text x="662" y="658" fill="#0F172A" font-family="Inter, Arial, sans-serif" font-size="18" font-weight="800">Confirmation pending</text>
  <defs>
    <pattern id="grid" width="72" height="72" patternUnits="userSpaceOnUse">
      <path d="M72 0H0V72" stroke="#CBD5E1" stroke-width="1"/>
    </pattern>
    <linearGradient id="panelGlow" x1="84" y1="72" x2="1116" y2="828" gradientUnits="userSpaceOnUse">
      <stop stop-color="#312E81"/>
      <stop offset="0.44" stop-color="#111827"/>
      <stop offset="1" stop-color="#334155"/>
    </linearGradient>
  </defs>
</svg>
