<svg width="1200" height="675" viewBox="0 0 1200 675" fill="none" xmlns="http://www.w3.org/2000/svg" role="img" aria-labelledby="title desc">
  <title id="title">CLLCTVE discovery feed wireframe</title>
  <desc id="desc">A low-fidelity discovery feed wireframe showing creator cards, challenge prompts, and feedback actions.</desc>
  <rect width="1200" height="675" fill="#111827"/>
  <rect x="60" y="48" width="1080" height="579" rx="28" fill="#181B24" stroke="white" stroke-opacity=".12"/>
  <text x="96" y="102" fill="#FF4967" font-family="Arial, Helvetica, sans-serif" font-size="30" font-weight="800">Discovery feed wireframe</text>
  <text x="96" y="134" fill="#D9DDE7" font-family="Arial, Helvetica, sans-serif" font-size="16">Low-fidelity structure for scanning creators, feedback moments, and brand prompts in one loop.</text>

  <rect x="116" y="178" width="226" height="406" rx="40" fill="#0D0D12"/>
  <rect x="137" y="216" width="184" height="330" rx="26" fill="#F8FAFC"/>
  <rect x="159" y="240" width="140" height="14" rx="7" fill="#CBD5E1"/>
  <rect x="159" y="276" width="140" height="132" rx="20" fill="#E5E7EB"/>
  <rect x="177" y="424" width="104" height="12" rx="6" fill="#CBD5E1"/>
  <rect x="177" y="450" width="72" height="10" rx="5" fill="#E5E7EB"/>
  <rect x="159" y="488" width="46" height="26" rx="13" fill="#FF4967"/>
  <rect x="216" y="488" width="46" height="26" rx="13" fill="#E5E7EB"/>
  <rect x="273" y="488" width="26" height="26" rx="13" fill="#E5E7EB"/>

  <rect x="420" y="190" width="282" height="166" rx="22" fill="#F8FAFC"/>
  <rect x="446" y="216" width="230" height="78" rx="18" fill="#E5E7EB"/>
  <text x="446" y="324" fill="#111827" font-family="Arial, Helvetica, sans-serif" font-size="18" font-weight="800">Creator card</text>
  <rect x="568" y="310" width="80" height="18" rx="9" fill="#CBD5E1"/>

  <rect x="744" y="190" width="282" height="166" rx="22" fill="#F8FAFC"/>
  <text x="770" y="232" fill="#111827" font-family="Arial, Helvetica, sans-serif" font-size="18" font-weight="800">Challenge prompt</text>
  <rect x="770" y="258" width="206" height="12" rx="6" fill="#CBD5E1"/>
  <rect x="770" y="288" width="154" height="10" rx="5" fill="#E5E7EB"/>
  <rect x="770" y="318" width="92" height="26" rx="13" fill="#FF4967"/>

  <rect x="420" y="402" width="282" height="128" rx="22" fill="#F8FAFC"/>
  <text x="446" y="444" fill="#111827" font-family="Arial, Helvetica, sans-serif" font-size="18" font-weight="800">Feedback actions</text>
  <rect x="446" y="472" width="58" height="30" rx="15" fill="#E5E7EB"/>
  <rect x="518" y="472" width="74" height="30" rx="15" fill="#E5E7EB"/>
  <rect x="606" y="472" width="58" height="30" rx="15" fill="#E5E7EB"/>

  <rect x="744" y="402" width="282" height="128" rx="22" fill="#F8FAFC"/>
  <text x="770" y="444" fill="#111827" font-family="Arial, Helvetica, sans-serif" font-size="18" font-weight="800">Opportunity rail</text>
  <rect x="770" y="472" width="206" height="12" rx="6" fill="#CBD5E1"/>
  <rect x="770" y="498" width="140" height="10" rx="5" fill="#E5E7EB"/>

  <path d="M342 368C384 357 394 325 420 292" stroke="#FF4967" stroke-width="3" stroke-dasharray="7 9"/>
  <path d="M702 274H744" stroke="#A3E635" stroke-width="3" stroke-dasharray="7 9"/>
  <path d="M702 466H744" stroke="#22D3EE" stroke-width="3" stroke-dasharray="7 9"/>

  <rect x="420" y="558" width="606" height="38" rx="19" fill="white" fill-opacity=".06"/>
  <text x="723" y="583" text-anchor="middle" fill="#F8FAFC" font-family="Arial, Helvetica, sans-serif" font-size="14">Design point: put response, discovery, and opportunity in the same scan path.</text>
</svg>
