<svg width="1080" height="810" viewBox="0 0 1080 810" fill="none" xmlns="http://www.w3.org/2000/svg" role="img" aria-labelledby="title desc">
  <title id="title">Litmus AI assessment setup wireframe</title>
  <desc id="desc">Low-fidelity wireframe based on the Litmus AI assessment screenshot, showing the top navigation, calibration panel, level cards, and start action.</desc>
  <rect width="1080" height="810" fill="#EEF2F7"/>
  <rect x="0" y="0" width="1080" height="78" fill="#FFFFFF"/>
  <rect x="128" y="20" width="28" height="28" rx="8" fill="#7C3AED"/>
  <text x="168" y="38" fill="#111827" font-family="Inter, Arial, sans-serif" font-size="18" font-weight="800">Litmus AI</text>
  <text x="168" y="58" fill="#64748B" font-family="Inter, Arial, sans-serif" font-size="10" font-weight="800" letter-spacing="3">AI LITERACY PLATFORM</text>
  <rect x="338" y="16" width="404" height="46" rx="23" fill="#FFFFFF" stroke="#DCE3EE"/>
  <rect x="356" y="24" width="118" height="30" rx="15" fill="#EEF2FF" stroke="#C4B5FD"/>
  <text x="382" y="44" fill="#4C1D95" font-family="Inter, Arial, sans-serif" font-size="13" font-weight="800">Assessment</text>
  <text x="500" y="44" fill="#334155" font-family="Inter, Arial, sans-serif" font-size="13" font-weight="700">Training</text>
  <text x="596" y="44" fill="#334155" font-family="Inter, Arial, sans-serif" font-size="13" font-weight="700">Certification</text>
  <text x="698" y="44" fill="#334155" font-family="Inter, Arial, sans-serif" font-size="13" font-weight="700">Pricing</text>
  <text x="808" y="44" fill="#334155" font-family="Inter, Arial, sans-serif" font-size="13" font-weight="800">Sign in</text>
  <rect x="874" y="18" width="150" height="42" rx="21" fill="#7C3AED"/>
  <text x="907" y="44" fill="#FFFFFF" font-family="Inter, Arial, sans-serif" font-size="13" font-weight="800">Start free</text>

  <rect x="0" y="78" width="1080" height="732" fill="#4B5563"/>
  <rect x="140" y="170" width="800" height="520" rx="26" fill="#FFFFFF"/>
  <rect x="140" y="170" width="356" height="520" rx="26" fill="#0F172A"/>
  <path d="M496 170V690" stroke="#CBD5E1"/>
  <g opacity="0.22">
    <path d="M168 205H470" stroke="#64748B"/>
    <path d="M168 245H470" stroke="#64748B"/>
    <path d="M168 285H470" stroke="#64748B"/>
    <path d="M168 325H470" stroke="#64748B"/>
    <path d="M168 365H470" stroke="#64748B"/>
    <path d="M168 405H470" stroke="#64748B"/>
    <path d="M168 445H470" stroke="#64748B"/>
    <path d="M168 485H470" stroke="#64748B"/>
    <path d="M168 525H470" stroke="#64748B"/>
    <path d="M168 565H470" stroke="#64748B"/>
    <path d="M168 605H470" stroke="#64748B"/>
    <path d="M168 645H470" stroke="#64748B"/>
    <path d="M188 190V670" stroke="#64748B"/>
    <path d="M228 190V670" stroke="#64748B"/>
    <path d="M268 190V670" stroke="#64748B"/>
    <path d="M308 190V670" stroke="#64748B"/>
    <path d="M348 190V670" stroke="#64748B"/>
    <path d="M388 190V670" stroke="#64748B"/>
    <path d="M428 190V670" stroke="#64748B"/>
  </g>
  <rect x="174" y="202" width="44" height="44" rx="14" fill="#FFFFFF"/>
  <text x="238" y="218" fill="#A5F3FC" font-family="Inter, Arial, sans-serif" font-size="11" font-weight="900" letter-spacing="2">CALIBRATION</text>
  <text x="238" y="248" fill="#FFFFFF" font-family="Inter, Arial, sans-serif" font-size="25" font-weight="900">Before you begin</text>
  <text x="174" y="296" fill="#E2E8F0" font-family="Inter, Arial, sans-serif" font-size="14">Check how you reason with AI.</text>
  <text x="174" y="322" fill="#E2E8F0" font-family="Inter, Arial, sans-serif" font-size="14">Keep the test useful, not perfect.</text>

  <rect x="174" y="352" width="286" height="58" rx="14" fill="#FFFFFF" fill-opacity="0.08" stroke="#334155"/>
  <circle cx="200" cy="381" r="16" fill="#334155"/>
  <text x="226" y="375" fill="#FFFFFF" font-family="Inter, Arial, sans-serif" font-size="14" font-weight="800">AI thinking</text>
  <text x="226" y="397" fill="#CBD5E1" font-family="Inter, Arial, sans-serif" font-size="12">Reason through decisions</text>
  <rect x="174" y="424" width="286" height="58" rx="14" fill="#FFFFFF" fill-opacity="0.08" stroke="#334155"/>
  <circle cx="200" cy="453" r="16" fill="#334155"/>
  <text x="226" y="447" fill="#FFFFFF" font-family="Inter, Arial, sans-serif" font-size="14" font-weight="800">Prompt clarity</text>
  <text x="226" y="469" fill="#CBD5E1" font-family="Inter, Arial, sans-serif" font-size="12">Use the right context</text>
  <rect x="174" y="496" width="286" height="58" rx="14" fill="#FFFFFF" fill-opacity="0.08" stroke="#334155"/>
  <circle cx="200" cy="525" r="16" fill="#334155"/>
  <text x="226" y="519" fill="#FFFFFF" font-family="Inter, Arial, sans-serif" font-size="14" font-weight="800">Workplace judgment</text>
  <text x="226" y="541" fill="#CBD5E1" font-family="Inter, Arial, sans-serif" font-size="12">Spot risks before action</text>

  <rect x="174" y="586" width="88" height="72" rx="14" fill="#FFFFFF" fill-opacity="0.08" stroke="#334155"/>
  <text x="195" y="620" fill="#FFFFFF" font-family="Inter, Arial, sans-serif" font-size="13" font-weight="900">15</text>
  <text x="187" y="644" fill="#CBD5E1" font-family="Inter, Arial, sans-serif" font-size="10" font-weight="800">QUESTIONS</text>
  <rect x="272" y="586" width="88" height="72" rx="14" fill="#FFFFFF" fill-opacity="0.08" stroke="#334155"/>
  <text x="294" y="620" fill="#FFFFFF" font-family="Inter, Arial, sans-serif" font-size="13" font-weight="900">3-5</text>
  <text x="293" y="644" fill="#CBD5E1" font-family="Inter, Arial, sans-serif" font-size="10" font-weight="800">MINUTES</text>
  <rect x="370" y="586" width="90" height="72" rx="14" fill="#FFFFFF" fill-opacity="0.08" stroke="#334155"/>
  <text x="394" y="620" fill="#FFFFFF" font-family="Inter, Arial, sans-serif" font-size="13" font-weight="900">PATH</text>
  <text x="393" y="644" fill="#CBD5E1" font-family="Inter, Arial, sans-serif" font-size="10" font-weight="800">MATCHED</text>

  <text x="532" y="222" fill="#5B21B6" font-family="Inter, Arial, sans-serif" font-size="12" font-weight="900" letter-spacing="4">CHOOSE YOUR LEVEL</text>
  <text x="532" y="264" fill="#111827" font-family="Inter, Arial, sans-serif" font-size="28" font-weight="900">Pick the version that fits.</text>
  <text x="532" y="302" fill="#475569" font-family="Inter, Arial, sans-serif" font-size="14">The goal is a useful course path.</text>

  <rect x="532" y="334" width="354" height="76" rx="16" fill="#FFFFFF" stroke="#DCE3EE"/>
  <text x="552" y="362" fill="#94A3B8" font-family="Inter, Arial, sans-serif" font-size="11" font-weight="900" letter-spacing="2">LEVEL 1</text>
  <text x="552" y="389" fill="#111827" font-family="Inter, Arial, sans-serif" font-size="15" font-weight="900">Beginner</text>
  <text x="552" y="407" fill="#475569" font-family="Inter, Arial, sans-serif" font-size="12">Plain-language questions</text>
  <circle cx="856" cy="372" r="12" fill="#F8FAFC" stroke="#CBD5E1"/>

  <rect x="532" y="426" width="354" height="76" rx="16" fill="#FFFFFF" stroke="#DCE3EE"/>
  <text x="552" y="454" fill="#94A3B8" font-family="Inter, Arial, sans-serif" font-size="11" font-weight="900" letter-spacing="2">LEVEL 2</text>
  <text x="552" y="481" fill="#111827" font-family="Inter, Arial, sans-serif" font-size="15" font-weight="900">Intermediate</text>
  <text x="552" y="499" fill="#475569" font-family="Inter, Arial, sans-serif" font-size="12">Workplace scenarios</text>
  <circle cx="856" cy="464" r="12" fill="#EEF2FF" stroke="#7C3AED" stroke-width="2"/>

  <rect x="532" y="518" width="354" height="76" rx="16" fill="#FFFFFF" stroke="#DCE3EE"/>
  <text x="552" y="546" fill="#94A3B8" font-family="Inter, Arial, sans-serif" font-size="11" font-weight="900" letter-spacing="2">LEVEL 3</text>
  <text x="552" y="573" fill="#111827" font-family="Inter, Arial, sans-serif" font-size="15" font-weight="900">Advanced</text>
  <text x="552" y="591" fill="#475569" font-family="Inter, Arial, sans-serif" font-size="12">Strategic AI questions</text>
  <circle cx="856" cy="556" r="12" fill="#F8FAFC" stroke="#CBD5E1"/>

  <path d="M532 622H886" stroke="#E2E8F0"/>
  <text x="532" y="652" fill="#64748B" font-family="Inter, Arial, sans-serif" font-size="12">About 3-5 minutes.</text>
  <text x="532" y="672" fill="#64748B" font-family="Inter, Arial, sans-serif" font-size="12">Saves your path.</text>
  <rect x="684" y="638" width="86" height="44" rx="11" fill="#FFFFFF" stroke="#DCE3EE"/>
  <text x="707" y="665" fill="#475569" font-family="Inter, Arial, sans-serif" font-size="13" font-weight="800">Not now</text>
  <rect x="782" y="638" width="104" height="44" rx="11" fill="#7C3AED"/>
  <text x="806" y="665" fill="#FFFFFF" font-family="Inter, Arial, sans-serif" font-size="13" font-weight="900">Start test</text>

  <rect x="140" y="726" width="398" height="1" fill="#CBD5E1"/>
  <text x="140" y="754" fill="#64748B" font-family="Inter, Arial, sans-serif" font-size="14">Wireframe mirrors the assessment setup screenshot.</text>
</svg>
