<svg width="1440" height="810" viewBox="0 0 1440 810" fill="none" xmlns="http://www.w3.org/2000/svg" role="img" aria-labelledby="title desc">
  <title id="title">Litmus AI sitemap</title>
  <desc id="desc">Product map connecting home, assessment, results, training, certification, billing, dashboard, profile, login, and registration routes.</desc>
  <rect width="1440" height="810" fill="#10131F"/>
  <rect x="44" y="42" width="1352" height="726" rx="34" fill="#F8FAFC"/>
  <rect x="72" y="70" width="1296" height="670" rx="24" fill="#FFFFFF" stroke="#DCE3EE" stroke-width="2"/>
  <text x="112" y="128" fill="#111827" font-family="Inter, Arial, sans-serif" font-size="34" font-weight="800">Assess, Activate, Certify sitemap</text>
  <text x="112" y="166" fill="#64748B" font-family="Inter, Arial, sans-serif" font-size="18">The free readiness check stays connected to learning, credentials, team review, and billing.</text>

  <defs>
    <marker id="arrow" markerWidth="12" markerHeight="12" refX="9" refY="6" orient="auto" markerUnits="strokeWidth">
      <path d="M2 2L10 6L2 10" stroke="#7C3AED" stroke-width="2" stroke-linecap="round" stroke-linejoin="round"/>
    </marker>
    <filter id="shadow" x="-20%" y="-20%" width="140%" height="140%">
      <feDropShadow dx="0" dy="12" stdDeviation="16" flood-color="#0F172A" flood-opacity="0.10"/>
    </filter>
  </defs>

  <g stroke="#7C3AED" stroke-width="3" stroke-linecap="round" marker-end="url(#arrow)">
    <path d="M320 262H494"/>
    <path d="M666 262H844"/>
    <path d="M1016 262V372"/>
    <path d="M1016 514V590"/>
    <path d="M580 340V452"/>
    <path d="M580 580V638"/>
    <path d="M844 452H700"/>
    <path d="M494 452H350"/>
  </g>

  <g filter="url(#shadow)">
    <rect x="112" y="218" width="208" height="88" rx="18" fill="#111827"/>
    <text x="136" y="256" fill="#FFFFFF" font-family="Inter, Arial, sans-serif" font-size="20" font-weight="800">Home</text>
    <text x="136" y="282" fill="#CBD5E1" font-family="Inter, Arial, sans-serif" font-size="14">Promise and entry</text>
  </g>

  <g filter="url(#shadow)">
    <rect x="494" y="218" width="208" height="88" rx="18" fill="#F3F0FF" stroke="#C4B5FD" stroke-width="2"/>
    <text x="518" y="256" fill="#4C1D95" font-family="Inter, Arial, sans-serif" font-size="20" font-weight="800">Assessment</text>
    <text x="518" y="282" fill="#6D5A98" font-family="Inter, Arial, sans-serif" font-size="14">Level and questions</text>
  </g>

  <g filter="url(#shadow)">
    <rect x="844" y="218" width="208" height="88" rx="18" fill="#EEFDF6" stroke="#A7F3D0" stroke-width="2"/>
    <text x="868" y="256" fill="#065F46" font-family="Inter, Arial, sans-serif" font-size="20" font-weight="800">Results</text>
    <text x="868" y="282" fill="#047857" font-family="Inter, Arial, sans-serif" font-size="14">Score and gaps</text>
  </g>

  <g filter="url(#shadow)">
    <rect x="844" y="410" width="208" height="104" rx="18" fill="#FFFFFF" stroke="#DCE3EE" stroke-width="2"/>
    <text x="868" y="448" fill="#111827" font-family="Inter, Arial, sans-serif" font-size="20" font-weight="800">Training</text>
    <text x="868" y="474" fill="#64748B" font-family="Inter, Arial, sans-serif" font-size="14">Modules and progress</text>
    <rect x="868" y="490" width="116" height="8" rx="4" fill="#D1FAE5"/>
  </g>

  <g filter="url(#shadow)">
    <rect x="912" y="590" width="208" height="88" rx="18" fill="#FFFFFF" stroke="#DCE3EE" stroke-width="2"/>
    <text x="936" y="628" fill="#111827" font-family="Inter, Arial, sans-serif" font-size="20" font-weight="800">Certification</text>
    <text x="936" y="654" fill="#64748B" font-family="Inter, Arial, sans-serif" font-size="14">Credential path</text>
  </g>

  <g filter="url(#shadow)">
    <rect x="472" y="452" width="216" height="128" rx="18" fill="#FFFFFF" stroke="#DCE3EE" stroke-width="2"/>
    <text x="496" y="490" fill="#111827" font-family="Inter, Arial, sans-serif" font-size="20" font-weight="800">Billing</text>
    <text x="496" y="516" fill="#64748B" font-family="Inter, Arial, sans-serif" font-size="14">Free, Premium, Team</text>
    <rect x="496" y="538" width="46" height="24" rx="12" fill="#F1F5F9"/>
    <rect x="552" y="538" width="74" height="24" rx="12" fill="#EDE9FE"/>
    <rect x="636" y="538" width="34" height="24" rx="12" fill="#DCFCE7"/>
  </g>

  <g filter="url(#shadow)">
    <rect x="124" y="410" width="226" height="104" rx="18" fill="#FFFFFF" stroke="#DCE3EE" stroke-width="2"/>
    <text x="148" y="448" fill="#111827" font-family="Inter, Arial, sans-serif" font-size="20" font-weight="800">Auth</text>
    <text x="148" y="474" fill="#64748B" font-family="Inter, Arial, sans-serif" font-size="14">Login and register</text>
    <rect x="148" y="490" width="76" height="8" rx="4" fill="#DDD6FE"/>
  </g>

  <g filter="url(#shadow)">
    <rect x="472" y="638" width="216" height="78" rx="18" fill="#111827"/>
    <text x="496" y="672" fill="#FFFFFF" font-family="Inter, Arial, sans-serif" font-size="20" font-weight="800">Dashboard</text>
    <text x="496" y="698" fill="#CBD5E1" font-family="Inter, Arial, sans-serif" font-size="14">Progress and admin view</text>
  </g>

  <g filter="url(#shadow)">
    <rect x="1168" y="590" width="136" height="88" rx="18" fill="#FFFFFF" stroke="#DCE3EE" stroke-width="2"/>
    <text x="1192" y="628" fill="#111827" font-family="Inter, Arial, sans-serif" font-size="20" font-weight="800">Profile</text>
    <text x="1192" y="654" fill="#64748B" font-family="Inter, Arial, sans-serif" font-size="14">Account state</text>
  </g>

  <path d="M1120 634H1168" stroke="#7C3AED" stroke-width="3" stroke-linecap="round" marker-end="url(#arrow)"/>
  <rect x="112" y="654" width="242" height="38" rx="19" fill="#F8FAFC" stroke="#DCE3EE"/>
  <circle cx="134" cy="673" r="6" fill="#7C3AED"/>
  <text x="152" y="679" fill="#475569" font-family="Inter, Arial, sans-serif" font-size="14">Assessment is the acquisition loop.</text>
</svg>
